<mxfile host="app.diagrams.net" modified="2023-05-31T03:14:01.516Z" agent="Mozilla/5.0 (Windows NT 10.0; Win64; x64) AppleWebKit/537.36 (KHTML, like Gecko) Chrome/113.0.0.0 Safari/537.36" etag="VDrJjiIlU5T3TKd4XJp8" version="21.3.5" type="github">
  <diagram name="Page-1" id="Ws0cCQXUffauceehro2Z">
    <mxGraphModel dx="1195" dy="633" grid="1" gridSize="10" guides="1" tooltips="1" connect="1" arrows="1" fold="1" page="1" pageScale="1" pageWidth="827" pageHeight="1169" math="0" shadow="0">
      <root>
        <mxCell id="0" />
        <mxCell id="1" parent="0" />
        <mxCell id="FkUGdj84X0FjytMbgvNv-40" value="" style="rounded=1;whiteSpace=wrap;html=1;" parent="1" vertex="1">
          <mxGeometry x="80" y="140" width="320" height="200" as="geometry" />
        </mxCell>
        <mxCell id="FkUGdj84X0FjytMbgvNv-41" value="" style="rounded=1;whiteSpace=wrap;html=1;" parent="1" vertex="1">
          <mxGeometry x="80" y="348.75" width="320" height="191.25" as="geometry" />
        </mxCell>
        <mxCell id="FkUGdj84X0FjytMbgvNv-42" value="" style="rounded=1;whiteSpace=wrap;html=1;" parent="1" vertex="1">
          <mxGeometry x="80" y="550" width="320" height="110" as="geometry" />
        </mxCell>
        <mxCell id="FkUGdj84X0FjytMbgvNv-216" style="edgeStyle=orthogonalEdgeStyle;rounded=0;orthogonalLoop=1;jettySize=auto;html=1;exitX=1;exitY=0.5;exitDx=0;exitDy=0;entryX=1;entryY=0.5;entryDx=0;entryDy=0;curved=1;" parent="1" target="FkUGdj84X0FjytMbgvNv-113" edge="1">
          <mxGeometry relative="1" as="geometry" />
        </mxCell>
        <mxCell id="l3lBOCojhKdg14r2VLg7-49" style="edgeStyle=orthogonalEdgeStyle;rounded=0;orthogonalLoop=1;jettySize=auto;html=1;exitX=1;exitY=0.5;exitDx=0;exitDy=0;entryX=0;entryY=0.5;entryDx=0;entryDy=0;" parent="1" source="FkUGdj84X0FjytMbgvNv-43" target="FkUGdj84X0FjytMbgvNv-44" edge="1">
          <mxGeometry relative="1" as="geometry" />
        </mxCell>
        <mxCell id="FkUGdj84X0FjytMbgvNv-43" value="读取线程" style="rounded=0;whiteSpace=wrap;html=1;" parent="1" vertex="1">
          <mxGeometry x="113.5" y="206.69" width="60" height="30" as="geometry" />
        </mxCell>
        <mxCell id="FkUGdj84X0FjytMbgvNv-204" style="edgeStyle=orthogonalEdgeStyle;rounded=0;orthogonalLoop=1;jettySize=auto;html=1;exitX=1;exitY=0.5;exitDx=0;exitDy=0;entryX=0;entryY=0.5;entryDx=0;entryDy=0;" parent="1" source="FkUGdj84X0FjytMbgvNv-44" target="FkUGdj84X0FjytMbgvNv-45" edge="1">
          <mxGeometry relative="1" as="geometry" />
        </mxCell>
        <mxCell id="FkUGdj84X0FjytMbgvNv-44" value="事务管理器" style="rounded=0;whiteSpace=wrap;html=1;" parent="1" vertex="1">
          <mxGeometry x="193.5" y="206.69" width="70" height="30" as="geometry" />
        </mxCell>
        <mxCell id="l3lBOCojhKdg14r2VLg7-46" style="edgeStyle=orthogonalEdgeStyle;rounded=0;orthogonalLoop=1;jettySize=auto;html=1;exitX=0.5;exitY=1;exitDx=0;exitDy=0;entryX=0.5;entryY=0;entryDx=0;entryDy=0;" parent="1" source="FkUGdj84X0FjytMbgvNv-45" target="l3lBOCojhKdg14r2VLg7-2" edge="1">
          <mxGeometry relative="1" as="geometry" />
        </mxCell>
        <mxCell id="FkUGdj84X0FjytMbgvNv-45" value="日志线程" style="rounded=0;whiteSpace=wrap;html=1;" parent="1" vertex="1">
          <mxGeometry x="290" y="206.69" width="60" height="30" as="geometry" />
        </mxCell>
        <mxCell id="FkUGdj84X0FjytMbgvNv-209" value="DRAM" style="text;html=1;strokeColor=none;fillColor=none;align=center;verticalAlign=middle;whiteSpace=wrap;rounded=0;" parent="1" vertex="1">
          <mxGeometry x="10" y="236.69" width="60" height="30" as="geometry" />
        </mxCell>
        <mxCell id="FkUGdj84X0FjytMbgvNv-210" value="PM" style="text;html=1;strokeColor=none;fillColor=none;align=center;verticalAlign=middle;whiteSpace=wrap;rounded=0;" parent="1" vertex="1">
          <mxGeometry x="10" y="431.88" width="60" height="30" as="geometry" />
        </mxCell>
        <mxCell id="FkUGdj84X0FjytMbgvNv-211" value="SSD" style="text;html=1;strokeColor=none;fillColor=none;align=center;verticalAlign=middle;whiteSpace=wrap;rounded=0;" parent="1" vertex="1">
          <mxGeometry x="10" y="585" width="60" height="30" as="geometry" />
        </mxCell>
        <mxCell id="FkUGdj84X0FjytMbgvNv-214" style="rounded=0;orthogonalLoop=1;jettySize=auto;html=1;entryX=0.5;entryY=0;entryDx=0;entryDy=0;exitX=0.5;exitY=1;exitDx=0;exitDy=0;" parent="1" source="FkUGdj84X0FjytMbgvNv-213" target="FkUGdj84X0FjytMbgvNv-44" edge="1">
          <mxGeometry relative="1" as="geometry">
            <mxPoint x="229" y="187.94" as="sourcePoint" />
          </mxGeometry>
        </mxCell>
        <mxCell id="FkUGdj84X0FjytMbgvNv-213" value="分布式向量时间戳" style="rounded=0;whiteSpace=wrap;html=1;" parent="1" vertex="1">
          <mxGeometry x="163.5" y="147.94" width="130" height="34.38" as="geometry" />
        </mxCell>
        <mxCell id="FkUGdj84X0FjytMbgvNv-108" value="目录" style="shape=table;startSize=20;container=1;collapsible=0;childLayout=tableLayout;fontSize=12;labelBorderColor=none;labelBackgroundColor=none;" parent="1" vertex="1">
          <mxGeometry x="96.26" y="407.13" width="110" height="79.5" as="geometry" />
        </mxCell>
        <mxCell id="FkUGdj84X0FjytMbgvNv-109" value="" style="shape=tableRow;horizontal=0;startSize=0;swimlaneHead=0;swimlaneBody=0;strokeColor=inherit;top=0;left=0;bottom=0;right=0;collapsible=0;dropTarget=0;fillColor=none;points=[[0,0.5],[1,0.5]];portConstraint=eastwest;fontSize=12;" parent="FkUGdj84X0FjytMbgvNv-108" vertex="1">
          <mxGeometry y="20" width="110" height="20" as="geometry" />
        </mxCell>
        <mxCell id="FkUGdj84X0FjytMbgvNv-110" value="&lt;font style=&quot;font-size: 11px;&quot;&gt;页面&lt;/font&gt;" style="shape=partialRectangle;html=1;whiteSpace=wrap;connectable=0;strokeColor=inherit;overflow=hidden;fillColor=none;top=0;left=0;bottom=0;right=0;pointerEvents=1;fontSize=12;" parent="FkUGdj84X0FjytMbgvNv-109" vertex="1">
          <mxGeometry width="36" height="20" as="geometry">
            <mxRectangle width="36" height="20" as="alternateBounds" />
          </mxGeometry>
        </mxCell>
        <mxCell id="FkUGdj84X0FjytMbgvNv-111" value="&lt;font style=&quot;font-size: 12px;&quot;&gt;状态&lt;/font&gt;" style="shape=partialRectangle;html=1;whiteSpace=wrap;connectable=0;strokeColor=inherit;overflow=hidden;fillColor=none;top=0;left=0;bottom=0;right=0;pointerEvents=1;fontSize=12;" parent="FkUGdj84X0FjytMbgvNv-109" vertex="1">
          <mxGeometry x="36" width="39" height="20" as="geometry">
            <mxRectangle width="39" height="20" as="alternateBounds" />
          </mxGeometry>
        </mxCell>
        <mxCell id="FkUGdj84X0FjytMbgvNv-112" value="节点" style="shape=partialRectangle;html=1;whiteSpace=wrap;connectable=0;strokeColor=inherit;overflow=hidden;fillColor=none;top=0;left=0;bottom=0;right=0;pointerEvents=1;fontSize=12;" parent="FkUGdj84X0FjytMbgvNv-109" vertex="1">
          <mxGeometry x="75" width="35" height="20" as="geometry">
            <mxRectangle width="35" height="20" as="alternateBounds" />
          </mxGeometry>
        </mxCell>
        <mxCell id="FkUGdj84X0FjytMbgvNv-113" value="" style="shape=tableRow;horizontal=0;startSize=0;swimlaneHead=0;swimlaneBody=0;strokeColor=inherit;top=0;left=0;bottom=0;right=0;collapsible=0;dropTarget=0;fillColor=none;points=[[0,0.5],[1,0.5]];portConstraint=eastwest;fontSize=12;" parent="FkUGdj84X0FjytMbgvNv-108" vertex="1">
          <mxGeometry y="40" width="110" height="20" as="geometry" />
        </mxCell>
        <mxCell id="FkUGdj84X0FjytMbgvNv-114" value="P1" style="shape=partialRectangle;html=1;whiteSpace=wrap;connectable=0;strokeColor=inherit;overflow=hidden;fillColor=none;top=0;left=0;bottom=0;right=0;pointerEvents=1;fontSize=12;" parent="FkUGdj84X0FjytMbgvNv-113" vertex="1">
          <mxGeometry width="36" height="20" as="geometry">
            <mxRectangle width="36" height="20" as="alternateBounds" />
          </mxGeometry>
        </mxCell>
        <mxCell id="FkUGdj84X0FjytMbgvNv-115" value="共享" style="shape=partialRectangle;html=1;whiteSpace=wrap;connectable=0;strokeColor=inherit;overflow=hidden;fillColor=none;top=0;left=0;bottom=0;right=0;pointerEvents=1;fontSize=12;" parent="FkUGdj84X0FjytMbgvNv-113" vertex="1">
          <mxGeometry x="36" width="39" height="20" as="geometry">
            <mxRectangle width="39" height="20" as="alternateBounds" />
          </mxGeometry>
        </mxCell>
        <mxCell id="FkUGdj84X0FjytMbgvNv-116" value="0,1" style="shape=partialRectangle;html=1;whiteSpace=wrap;connectable=0;strokeColor=inherit;overflow=hidden;fillColor=none;top=0;left=0;bottom=0;right=0;pointerEvents=1;fontSize=12;" parent="FkUGdj84X0FjytMbgvNv-113" vertex="1">
          <mxGeometry x="75" width="35" height="20" as="geometry">
            <mxRectangle width="35" height="20" as="alternateBounds" />
          </mxGeometry>
        </mxCell>
        <mxCell id="FkUGdj84X0FjytMbgvNv-145" value="" style="shape=tableRow;horizontal=0;startSize=0;swimlaneHead=0;swimlaneBody=0;strokeColor=inherit;top=0;left=0;bottom=0;right=0;collapsible=0;dropTarget=0;fillColor=none;points=[[0,0.5],[1,0.5]];portConstraint=eastwest;fontSize=12;" parent="FkUGdj84X0FjytMbgvNv-108" vertex="1">
          <mxGeometry y="60" width="110" height="19" as="geometry" />
        </mxCell>
        <mxCell id="FkUGdj84X0FjytMbgvNv-146" value="P2" style="shape=partialRectangle;html=1;whiteSpace=wrap;connectable=0;strokeColor=inherit;overflow=hidden;fillColor=none;top=0;left=0;bottom=0;right=0;pointerEvents=1;fontSize=12;" parent="FkUGdj84X0FjytMbgvNv-145" vertex="1">
          <mxGeometry width="36" height="19" as="geometry">
            <mxRectangle width="36" height="19" as="alternateBounds" />
          </mxGeometry>
        </mxCell>
        <mxCell id="FkUGdj84X0FjytMbgvNv-147" value="独占" style="shape=partialRectangle;html=1;whiteSpace=wrap;connectable=0;strokeColor=inherit;overflow=hidden;fillColor=none;top=0;left=0;bottom=0;right=0;pointerEvents=1;fontSize=12;" parent="FkUGdj84X0FjytMbgvNv-145" vertex="1">
          <mxGeometry x="36" width="39" height="19" as="geometry">
            <mxRectangle width="39" height="19" as="alternateBounds" />
          </mxGeometry>
        </mxCell>
        <mxCell id="FkUGdj84X0FjytMbgvNv-148" value="" style="shape=partialRectangle;html=1;whiteSpace=wrap;connectable=0;strokeColor=inherit;overflow=hidden;fillColor=none;top=0;left=0;bottom=0;right=0;pointerEvents=1;fontSize=12;" parent="FkUGdj84X0FjytMbgvNv-145" vertex="1">
          <mxGeometry x="75" width="35" height="19" as="geometry">
            <mxRectangle width="35" height="19" as="alternateBounds" />
          </mxGeometry>
        </mxCell>
        <mxCell id="l3lBOCojhKdg14r2VLg7-47" style="edgeStyle=orthogonalEdgeStyle;rounded=0;orthogonalLoop=1;jettySize=auto;html=1;exitX=0;exitY=0.5;exitDx=0;exitDy=0;entryX=0.75;entryY=1;entryDx=0;entryDy=0;" parent="1" source="l3lBOCojhKdg14r2VLg7-2" target="FkUGdj84X0FjytMbgvNv-44" edge="1">
          <mxGeometry relative="1" as="geometry" />
        </mxCell>
        <mxCell id="l3lBOCojhKdg14r2VLg7-53" style="edgeStyle=orthogonalEdgeStyle;rounded=0;orthogonalLoop=1;jettySize=auto;html=1;exitX=1;exitY=0.5;exitDx=0;exitDy=0;entryX=1;entryY=0.25;entryDx=0;entryDy=0;" parent="1" source="l3lBOCojhKdg14r2VLg7-2" target="l3lBOCojhKdg14r2VLg7-25" edge="1">
          <mxGeometry relative="1" as="geometry">
            <Array as="points">
              <mxPoint x="410" y="284" />
              <mxPoint x="410" y="389" />
            </Array>
          </mxGeometry>
        </mxCell>
        <mxCell id="l3lBOCojhKdg14r2VLg7-2" value="日志缓存区" style="rounded=1;whiteSpace=wrap;html=1;" parent="1" vertex="1">
          <mxGeometry x="280" y="264.38" width="80" height="40" as="geometry" />
        </mxCell>
        <mxCell id="l3lBOCojhKdg14r2VLg7-50" style="edgeStyle=orthogonalEdgeStyle;rounded=0;orthogonalLoop=1;jettySize=auto;html=1;exitX=0;exitY=0.25;exitDx=0;exitDy=0;entryX=0;entryY=0.5;entryDx=0;entryDy=0;" parent="1" source="l3lBOCojhKdg14r2VLg7-3" target="FkUGdj84X0FjytMbgvNv-43" edge="1">
          <mxGeometry relative="1" as="geometry">
            <Array as="points">
              <mxPoint x="70" y="279" />
              <mxPoint x="70" y="222" />
            </Array>
          </mxGeometry>
        </mxCell>
        <mxCell id="l3lBOCojhKdg14r2VLg7-3" value="共享缓存" style="shape=ext;double=1;rounded=1;align=center;labelPosition=center;verticalLabelPosition=top;verticalAlign=bottom;whiteSpace=wrap;html=1;" parent="1" vertex="1">
          <mxGeometry x="113.5" y="264.38" width="126.5" height="59.38" as="geometry" />
        </mxCell>
        <mxCell id="l3lBOCojhKdg14r2VLg7-6" value="&lt;br&gt;P3" style="shape=note;size=20;whiteSpace=wrap;html=1;dashed=1;labelPosition=center;verticalLabelPosition=middle;align=center;verticalAlign=middle;" parent="1" vertex="1">
          <mxGeometry x="199.91800000000006" y="274.5942355555556" width="27.084" height="38.95327999999999" as="geometry" />
        </mxCell>
        <mxCell id="l3lBOCojhKdg14r2VLg7-13" value="" style="group" parent="1" vertex="1" connectable="0">
          <mxGeometry x="235.33999999999997" y="460" width="155.56" height="70" as="geometry" />
        </mxCell>
        <mxCell id="l3lBOCojhKdg14r2VLg7-8" value="共享持久化内存" style="shape=ext;double=1;rounded=1;align=center;labelPosition=center;verticalLabelPosition=top;verticalAlign=bottom;whiteSpace=wrap;html=1;" parent="l3lBOCojhKdg14r2VLg7-13" vertex="1">
          <mxGeometry width="155.56" height="70" as="geometry" />
        </mxCell>
        <mxCell id="l3lBOCojhKdg14r2VLg7-9" value="&lt;br&gt;P1" style="shape=note;size=20;whiteSpace=wrap;html=1;" parent="l3lBOCojhKdg14r2VLg7-13" vertex="1">
          <mxGeometry x="16.7227" y="12.428888888888903" width="28.7786" height="45.92" as="geometry" />
        </mxCell>
        <mxCell id="l3lBOCojhKdg14r2VLg7-10" value="&lt;br&gt;P2" style="shape=note;size=20;whiteSpace=wrap;html=1;" parent="l3lBOCojhKdg14r2VLg7-13" vertex="1">
          <mxGeometry x="63.3907" y="12.428888888888903" width="28.7786" height="45.92" as="geometry" />
        </mxCell>
        <mxCell id="l3lBOCojhKdg14r2VLg7-11" value="&lt;br&gt;P3" style="shape=note;size=20;whiteSpace=wrap;html=1;" parent="l3lBOCojhKdg14r2VLg7-13" vertex="1">
          <mxGeometry x="110.0587" y="12.428888888888903" width="28.7786" height="45.92" as="geometry" />
        </mxCell>
        <mxCell id="l3lBOCojhKdg14r2VLg7-14" value="&lt;br&gt;P1" style="shape=note;size=20;whiteSpace=wrap;html=1;dashed=1;labelPosition=center;verticalLabelPosition=middle;align=center;verticalAlign=middle;" parent="1" vertex="1">
          <mxGeometry x="123.45800000000003" y="275.1142355555556" width="27.084" height="38.95327999999999" as="geometry" />
        </mxCell>
        <mxCell id="l3lBOCojhKdg14r2VLg7-15" value="&lt;br&gt;P2" style="shape=note;size=20;whiteSpace=wrap;html=1;dashed=1;labelPosition=center;verticalLabelPosition=middle;align=center;verticalAlign=middle;" parent="1" vertex="1">
          <mxGeometry x="160.49800000000005" y="275.1142355555556" width="27.084" height="38.95327999999999" as="geometry" />
        </mxCell>
        <mxCell id="l3lBOCojhKdg14r2VLg7-18" value="" style="group" parent="1" vertex="1" connectable="0">
          <mxGeometry x="150.54000000000002" y="570" width="155.56" height="70" as="geometry" />
        </mxCell>
        <mxCell id="l3lBOCojhKdg14r2VLg7-19" value="共享存储" style="shape=ext;double=1;rounded=1;align=center;labelPosition=center;verticalLabelPosition=top;verticalAlign=bottom;whiteSpace=wrap;html=1;" parent="l3lBOCojhKdg14r2VLg7-18" vertex="1">
          <mxGeometry width="155.56" height="70" as="geometry" />
        </mxCell>
        <mxCell id="l3lBOCojhKdg14r2VLg7-20" value="&lt;br&gt;P1" style="shape=note;size=20;whiteSpace=wrap;html=1;" parent="l3lBOCojhKdg14r2VLg7-18" vertex="1">
          <mxGeometry x="29.462699999999998" y="14.998888888888903" width="28.7786" height="45.92" as="geometry" />
        </mxCell>
        <mxCell id="l3lBOCojhKdg14r2VLg7-21" value="&lt;br&gt;P2" style="shape=note;size=20;whiteSpace=wrap;html=1;" parent="l3lBOCojhKdg14r2VLg7-18" vertex="1">
          <mxGeometry x="89.4607" y="14.998888888888903" width="28.7786" height="45.92" as="geometry" />
        </mxCell>
        <mxCell id="l3lBOCojhKdg14r2VLg7-24" value="" style="group;dashed=1;" parent="1" vertex="1" connectable="0">
          <mxGeometry x="235.33999999999997" y="373.75" width="141.81" height="60" as="geometry" />
        </mxCell>
        <mxCell id="l3lBOCojhKdg14r2VLg7-25" value="" style="rounded=1;whiteSpace=wrap;html=1;container=0;" parent="l3lBOCojhKdg14r2VLg7-24" vertex="1">
          <mxGeometry width="141.81" height="60" as="geometry" />
        </mxCell>
        <mxCell id="l3lBOCojhKdg14r2VLg7-26" value="" style="ellipse;whiteSpace=wrap;html=1;aspect=fixed;container=0;" parent="l3lBOCojhKdg14r2VLg7-24" vertex="1">
          <mxGeometry x="79.76812500000001" y="4.285714285714237" width="51.425604395604395" height="51.425604395604395" as="geometry" />
        </mxCell>
        <mxCell id="l3lBOCojhKdg14r2VLg7-27" value="元数据日志" style="ellipse;whiteSpace=wrap;html=1;aspect=fixed;container=0;" parent="l3lBOCojhKdg14r2VLg7-24" vertex="1">
          <mxGeometry x="85.67687500000002" y="9.999999999999966" width="39.99769230769231" height="39.99769230769231" as="geometry" />
        </mxCell>
        <mxCell id="l3lBOCojhKdg14r2VLg7-28" value="" style="ellipse;whiteSpace=wrap;html=1;aspect=fixed;container=0;" parent="l3lBOCojhKdg14r2VLg7-24" vertex="1">
          <mxGeometry x="8.863125" y="4.285714285714237" width="51.425604395604395" height="51.425604395604395" as="geometry" />
        </mxCell>
        <mxCell id="l3lBOCojhKdg14r2VLg7-29" value="数据日志" style="ellipse;whiteSpace=wrap;html=1;aspect=fixed;container=0;" parent="l3lBOCojhKdg14r2VLg7-24" vertex="1">
          <mxGeometry x="14.771875000000017" y="9.999999999999966" width="39.99769230769231" height="39.99769230769231" as="geometry" />
        </mxCell>
        <mxCell id="l3lBOCojhKdg14r2VLg7-39" style="edgeStyle=orthogonalEdgeStyle;rounded=0;orthogonalLoop=1;jettySize=auto;html=1;exitX=1;exitY=0.5;exitDx=0;exitDy=0;entryX=1;entryY=0.5;entryDx=0;entryDy=0;" parent="1" source="l3lBOCojhKdg14r2VLg7-25" target="l3lBOCojhKdg14r2VLg7-8" edge="1">
          <mxGeometry relative="1" as="geometry" />
        </mxCell>
        <mxCell id="l3lBOCojhKdg14r2VLg7-40" style="edgeStyle=orthogonalEdgeStyle;rounded=0;orthogonalLoop=1;jettySize=auto;html=1;exitX=1;exitY=0.75;exitDx=0;exitDy=0;entryX=1;entryY=0.5;entryDx=0;entryDy=0;" parent="1" source="l3lBOCojhKdg14r2VLg7-8" target="l3lBOCojhKdg14r2VLg7-19" edge="1">
          <mxGeometry relative="1" as="geometry" />
        </mxCell>
        <mxCell id="l3lBOCojhKdg14r2VLg7-43" style="edgeStyle=orthogonalEdgeStyle;rounded=0;orthogonalLoop=1;jettySize=auto;html=1;exitX=0;exitY=0.75;exitDx=0;exitDy=0;entryX=0;entryY=0.5;entryDx=0;entryDy=0;" parent="1" source="l3lBOCojhKdg14r2VLg7-19" target="l3lBOCojhKdg14r2VLg7-3" edge="1">
          <mxGeometry relative="1" as="geometry">
            <Array as="points">
              <mxPoint x="70" y="623" />
              <mxPoint x="70" y="294" />
            </Array>
          </mxGeometry>
        </mxCell>
        <mxCell id="l3lBOCojhKdg14r2VLg7-45" style="edgeStyle=orthogonalEdgeStyle;rounded=0;orthogonalLoop=1;jettySize=auto;html=1;exitX=0;exitY=0.5;exitDx=0;exitDy=0;entryX=0;entryY=0.75;entryDx=0;entryDy=0;" parent="1" source="l3lBOCojhKdg14r2VLg7-19" target="l3lBOCojhKdg14r2VLg7-8" edge="1">
          <mxGeometry relative="1" as="geometry">
            <Array as="points">
              <mxPoint x="90" y="605" />
              <mxPoint x="90" y="513" />
            </Array>
          </mxGeometry>
        </mxCell>
        <mxCell id="l3lBOCojhKdg14r2VLg7-51" style="edgeStyle=orthogonalEdgeStyle;rounded=0;orthogonalLoop=1;jettySize=auto;html=1;exitX=0;exitY=0.5;exitDx=0;exitDy=0;entryX=0;entryY=0.75;entryDx=0;entryDy=0;" parent="1" source="l3lBOCojhKdg14r2VLg7-8" target="l3lBOCojhKdg14r2VLg7-3" edge="1">
          <mxGeometry relative="1" as="geometry">
            <Array as="points">
              <mxPoint x="90" y="495" />
              <mxPoint x="90" y="309" />
            </Array>
          </mxGeometry>
        </mxCell>
      </root>
    </mxGraphModel>
  </diagram>
</mxfile>
